<svg xmlns="http://www.w3.org/2000/svg" version="1.1" xmlns:xlink="http://www.w3.org/1999/xlink" width="512" height="512"><svg width="512" height="512" viewBox="0 0 512 512" fill="none" xmlns="http://www.w3.org/2000/svg">
<rect width="512" height="512" rx="64" fill="#FCCEE8"></rect>
<path d="M125.04 347V165.24H168.048C183.749 165.24 197.403 168.824 209.008 175.992C220.784 182.989 229.829 193.315 236.144 206.968C242.629 220.451 245.872 236.92 245.872 256.376C245.872 275.832 242.629 292.301 236.144 305.784C229.829 319.267 220.784 329.507 209.008 336.504C197.403 343.501 183.749 347 168.048 347H125.04ZM147.056 325.496H166.768C184.517 325.496 198.256 319.779 207.984 308.344C217.883 296.739 222.832 279.416 222.832 256.376C222.832 233.336 217.883 216.013 207.984 204.408C198.256 192.632 184.517 186.744 166.768 186.744H147.056V325.496ZM275.98 366.968V347H388.62V366.968H275.98Z" fill="#1E2939"></path>
</svg><style>@media (prefers-color-scheme: light) { :root { filter: none; } }
@media (prefers-color-scheme: dark) { :root { filter: none; } }
</style></svg>